<?xml version="1.0" ?><!DOCTYPE svg  PUBLIC '-//W3C//DTD SVG 1.1//EN'  'http://www.w3.org/Graphics/SVG/1.1/DTD/svg11.dtd'><svg height="512px" style="shape-rendering:geometricPrecision; text-rendering:geometricPrecision; image-rendering:optimizeQuality; fill-rule:evenodd; clip-rule:evenodd" version="1.1" viewBox="0 0 512 512" width="512px" xml:space="preserve" xmlns="http://www.w3.org/2000/svg" xmlns:xlink="http://www.w3.org/1999/xlink"><defs><style type="text/css">
   <![CDATA[
    .fil0 {fill:#2B2A29}
    .fil1 {fill:#2B2A29;fill-rule:nonzero}
   ]]>
  </style></defs><g id="Layer_x0020_1"><g id="_578120608"><path class="fil0" d="M29 10l451 0c11,0 20,9 20,20l0 451c0,11 -9,20 -20,20l-451 0c-11,0 -20,-9 -20,-20l0 -451c0,-11 9,-20 20,-20zm13 14l425 0c10,0 19,8 19,19l0 425c0,10 -8,19 -19,19l-425 0c-10,0 -19,-8 -19,-19l0 -425c0,-10 8,-19 19,-19z"/><path class="fil1" d="M233 339c26,0 45,-6 55,-18 10,-12 15,-33 15,-64 0,-30 -5,-51 -16,-63 -10,-12 -28,-19 -53,-19l-30 0 0 129 -106 0 0 -213 128 0c33,0 57,1 73,4 16,3 30,8 42,14 23,13 40,32 52,57 11,24 17,54 17,90 0,37 -7,69 -21,94 -14,25 -35,44 -63,57 -11,5 -24,8 -40,11 -16,2 -42,3 -78,3l-109 0 0 -84 103 0c10,0 21,0 31,0z"/></g></g></svg>